HIERARCHY
ROOT pelvis
{
  OFFSET 0 100 0
  CHANNELS 6 Xposition Yposition Zposition Zrotation Xrotation Yrotation
  JOINT pelvis_right_femur
  {
    OFFSET -10.78128 -3.44521 -0.5502486
    CHANNELS 3 Zrotation Xrotation Yrotation
    JOINT right_femur_tibia
    {
      OFFSET -0.8047443 -44.0398 -0.1307829
      CHANNELS 3 Zrotation Xrotation Yrotation
      JOINT right_tibia_foot
      {
        OFFSET 3.006224 -47.83518 -5
        CHANNELS 3 Zrotation Xrotation Yrotation
        End Site
        {
          OFFSET 0 -5 15
        }
      }
    }
  }
  JOINT pelvis_left_femur
  {
    OFFSET 10.78128 -3.44521 -0.5502486
    CHANNELS 3 Zrotation Xrotation Yrotation
    JOINT left_femur_tibia
    {
      OFFSET 0.8047443 -44.0398 -0.1307829
      CHANNELS 3 Zrotation Xrotation Yrotation
      JOINT left_tibia_foot
      {
        OFFSET -4.370144 -48.10324 -4.275266
        CHANNELS 3 Zrotation Xrotation Yrotation
        End Site
        {
          OFFSET 0 -5 15
        }
      }
    }
  }
  JOINT pelvis_spine1
  {
    OFFSET 0 6.468898 -3.129235
    CHANNELS 3 Zrotation Xrotation Yrotation
    JOINT spine1
    {
      OFFSET 0 23.15396 4.99043
      CHANNELS 3 Zrotation Xrotation Yrotation
      JOINT spine2
      {
        OFFSET 0 20.79997 -5.064912
        CHANNELS 3 Zrotation Xrotation Yrotation
        JOINT neck
        {
          OFFSET 0 14.38658 9.616178
          CHANNELS 3 Zrotation Xrotation Yrotation
          End Site
          {
            OFFSET 0 20 0
          }
        }
      }
      JOINT right_manubrium
      {
        OFFSET -5.722621 16.35077 3.967754
        CHANNELS 3 Zrotation Xrotation Yrotation
        JOINT right_clavicle
        {
          OFFSET -13.16364 1.694482 -4.693211
          CHANNELS 3 Zrotation Xrotation Yrotation
          JOINT right_humerus
          {
            OFFSET -28.5034 -0.3100689 -2.792744
            CHANNELS 3 Zrotation Xrotation Yrotation
            JOINT right_radius
            {
              OFFSET -25.15693 0.02248979 -1.271978
              CHANNELS 3 Zrotation Xrotation Yrotation
              End Site
              {
                OFFSET -15 0 0
              }
            }
          }
        }
      }
      JOINT left_manubrium
      {
        OFFSET 5.722621 16.35077 3.967754
        CHANNELS 3 Zrotation Xrotation Yrotation
        JOINT left_clavicle
        {
          OFFSET 13.16364 1.694482 -4.693211
          CHANNELS 3 Zrotation Xrotation Yrotation
          JOINT left_humerus
          {
            OFFSET 29.39168 -1.063119 -2.237045
            CHANNELS 3 Zrotation Xrotation Yrotation
            JOINT left_radius
            {
              OFFSET 24.59957 -0.9528479 0.9047498
              CHANNELS 3 Zrotation Xrotation Yrotation
              End Site
              {
                OFFSET 15 -0 -0
              }
            }
          }
        }
      }
    }
  }
}
MOTION
Frames: 11
Frame Time: 0.0416666666667
40.20692 100.1807 244.0325 2.645788 -8.272454 -1.381221 -0.6003537 24.25357 8.385791 -0 14.90919 -0 7.63707 -15.65001 0.7536817 -0.3907962 -27.22258 -5.678196 -0 26.70173 -0 -7.747643 -5.721662 20.04447 -1.328307 -0.5568969 9.942199 -1.975511 9.831588 -1.939052 2.481636 21.69799 5.04006 1.726162 -14.71074 7.108413 1.209449 -22.04976 11.59345 79.55255 21.96382 -3.752456 -0 0 27.89991 -25.80276 13.96387 13.84853 4.750103 -13.92675 -2.705369 -93.81178 21.35107 26.28169 0 0 -11.1998 -2.975044 6.873745 16.20735
41.50731 99.55602 250.9863 2.86205 -8.089838 -1.548418 -1.637907 24.72576 8.193307 -0 20.54714 -0 8.465662 -13.98461 0.5689082 -1.725716 -25.67059 -6.971558 -0 25.50284 -0 -7.764269 -5.917559 19.49954 -1.674108 -1.150498 9.885115 -2.138312 9.394602 -1.907865 2.618213 21.72738 5.006431 1.602953 -14.72091 7.346136 1.110385 -21.71332 11.19394 79.86653 21.69901 -3.656039 -0 0 27.70368 -25.76937 13.79108 13.79943 4.504582 -13.09143 -2.725443 -93.86212 21.67881 26.61009 0 0 -9.948241 -3.278437 6.875593 16.73091
42.84799 99.45586 258.1566 3.18619 -8.087712 -1.422263 -2.645278 24.04741 7.745553 -0 27.39998 -0 9.095929 -11.66758 -0.10016 -3.280337 -22.73505 -8.255822 -0 25.65217 -0 -7.726696 -6.272588 18.92381 -2.14225 -1.754284 9.710145 -2.199702 9.094667 -1.940755 2.726374 21.88867 4.99931 1.474385 -14.65318 7.596561 1.243482 -20.94624 10.81601 80.56386 21.6696 -4.324195 -0 0 26.53095 -25.53132 13.71017 13.5034 4.277226 -12.56171 -2.793738 -93.52503 22.0974 26.21669 0 0 -9.219756 -3.441398 6.962707 17.05308
44.1596 99.95273 265.2259 3.514796 -8.357452 -0.8748654 -3.332841 21.85493 6.973883 -0 35.16406 -0 9.454198 -9.308138 -1.24474 -4.754597 -18.70135 -9.316624 -0 26.16891 -0 -7.579737 -7.046904 18.33457 -2.606995 -2.060614 9.27945 -2.177196 8.938903 -2.047766 2.761913 22.1872 5.033291 1.309534 -14.51176 7.848435 1.584801 -19.89426 10.53549 81.57792 21.87503 -5.58698 -0 0 24.53936 -25.07359 13.72176 12.98388 4.082855 -12.46429 -2.916683 -92.69852 22.60226 24.98178 0 0 -9.136762 -3.407823 7.154344 17.09096
45.39456 100.9723 271.9493 3.729316 -8.864025 0.01807168 -3.501037 17.86472 5.950642 -0 42.73824 -0 9.516845 -7.576462 -2.70155 -5.892864 -13.77136 -10.06982 -0 26.28303 -0 -7.346206 -8.203824 17.7252 -2.924526 -1.921845 8.499339 -2.078154 8.882575 -2.283111 2.68854 22.59687 5.133041 1.08564 -14.29026 8.103323 2.026157 -18.7623 10.37376 82.8224 22.27307 -7.196448 -0 0 22.1075 -24.41495 13.802 12.334 3.932071 -12.80091 -3.114939 -91.39139 23.15379 22.89732 0 0 -9.686403 -3.15443 7.45125 16.83027
46.52721 102.3254 278.2081 3.778175 -9.45462 1.099597 -3.196027 12.25046 4.834587 -0 48.75065 -0 9.270772 -6.712564 -4.223024 -6.583388 -8.260497 -10.54391 -0 25.61478 -0 -7.099665 -9.563564 17.07964 -3.03969 -1.417919 7.382648 -1.898456 8.85768 -2.700251 2.532567 23.076 5.291264 0.8178773 -13.99091 8.369356 2.409731 -17.66255 10.27094 84.23305 22.78349 -8.983746 -0 0 19.6102 -23.60443 13.90726 11.65053 3.864069 -13.47827 -3.387614 -89.70886 23.68848 20.07372 0 0 -10.80081 -2.697534 7.842284 16.2939
47.56493 103.7509 284.0153 3.688533 -9.855655 2.301721 -2.648128 5.680844 3.798258 -0 51.57485 -0 8.720222 -6.511742 -5.500901 -6.825765 -2.658443 -10.83162 -0 24.10149 -0 -6.945113 -10.88097 16.36715 -3.006143 -0.8277867 6.045251 -1.624641 8.776408 -3.345642 2.391646 23.56762 5.456915 0.562704 -13.63017 8.654839 2.533968 -16.60215 10.09079 85.75547 23.2891 -10.86721 -0 0 17.386 -22.71793 13.97532 11.02101 3.959583 -14.33653 -3.703683 -87.83222 24.14333 16.72414 0 0 -12.39716 -2.085246 8.311737 15.51991
48.5206 104.9523 289.4748 3.552286 -9.928042 3.615626 -2.135008 -1.122929 2.983003 -0 50.60649 -0 7.887835 -6.637542 -6.463593 -6.74943 2.658772 -11.03756 -0 21.99485 -0 -6.890151 -12.13295 15.57115 -2.942334 -0.3368466 4.654315 -1.26922 8.584757 -4.189222 2.343587 24.00486 5.564841 0.3675488 -13.25003 8.932096 2.323733 -15.55507 9.762721 87.27831 23.70524 -12.80271 -0 0 15.5212 -21.81521 13.96475 10.45696 4.261996 -15.28159 -4.016587 -85.88857 24.48637 13.05279 0 0 -14.38978 -1.360967 8.844381 14.5322
49.39275 105.6544 294.7432 3.481816 -9.643311 5.016915 -1.901486 -7.491064 2.450721 -0 46.01577 -0 6.814871 -6.789756 -7.191164 -6.539323 7.436664 -11.22418 -0 19.73372 -0 -6.883003 -13.43238 14.69734 -2.983552 -0.03173514 3.395171 -0.8651631 8.262772 -5.13713 2.43562 24.3201 5.551928 0.2649454 -12.90974 9.149954 1.808955 -14.48604 9.28591 88.66182 23.98602 -14.75389 -0 0 13.92864 -20.93258 13.85387 9.914626 4.775658 -16.26893 -4.27313 -83.96296 24.70953 9.251842 0 0 -16.68119 -0.5573112 9.42658 13.34857
50.1759 105.7172 299.9813 3.527306 -9.09861 6.399121 -1.992649 -13.05363 2.10312 -0 38.8236 -0 5.562464 -7.016727 -7.79604 -6.340887 11.64689 -11.36411 -0 17.82823 -0 -6.883355 -14.82786 13.79856 -3.172971 0.1074156 2.391412 -0.4570566 7.855519 -6.023615 2.643896 24.48667 5.404531 0.2494646 -12.67056 9.265752 1.151951 -13.37554 8.7786 89.84189 24.14891 -16.66899 -0 0 12.40959 -20.05166 13.66087 9.313187 5.429636 -17.2726 -4.430786 -82.14031 24.81219 5.520122 0 0 -19.1131 0.3135135 10.04293 12.01667
50.86538 105.1648 305.3162 3.671075 -8.429504 7.59359 -2.302774 -17.61833 1.796511 -0 30.39833 -0 4.192416 -7.468547 -8.36069 -6.229004 15.32155 -11.40366 -0 16.71481 -0 -6.882957 -16.26489 12.94694 -3.47282 0.1488607 1.702687 -0.07865216 7.425236 -6.69334 2.911934 24.51595 5.146414 0.2973901 -12.57224 9.260573 0.5410463 -12.24244 8.377668 90.80507 24.23847 -18.4745 -0 0 10.79149 -19.1341 13.41765 8.585754 6.120859 -18.26982 -4.465218 -80.50301 24.80702 2.053867 0 0 -21.48879 1.238294 10.673 10.60577
